<svg id="SvgjsSvg1001" width="288" height="288" xmlns="http://www.w3.org/2000/svg" version="1.1" xmlns:xlink="http://www.w3.org/1999/xlink" xmlns:svgjs="http://svgjs.com/svgjs"><defs id="SvgjsDefs1002"></defs><g id="SvgjsG1008"><svg xmlns="http://www.w3.org/2000/svg" width="288" height="288" version="1.0" viewBox="0 0 1600 1600"><path d="M4670 14468 c-10 -18 -444 -750 -964 -1627 -520 -877 -943 -1597-941 -1601 2 -3 636 -222 1410 -486 773 -263 1404 -482 1403 -485 -2 -4 -510
-521 -1130 -1149 -621 -628 -1128 -1145 -1128 -1149 0 -4 505 -504 1123 -1111
617 -607 1122 -1106 1122 -1109 0 -3 -63 -28 -140 -54 -1845 -639 -2618 -907
-2622 -911 -2 -2 365 -742 816 -1645 l821 -1641 2936 0 2935 0 1623 3253 1623
3254 -1622 3244 -1623 3244 -2811 3 -2812 2 -19 -32z m3370 -1713 l-745 -745
-1458 2 -1458 3 438 742 438 742 1765 1 1765 0 -745 -745z m2763 -1477 c515
-1029 936 -1872 935 -1873 -2 -1 -3269 2081 -3428 2185 -12 8 143 167 765 784
429 426 782 775 785 775 3 0 427 -842 943 -1871z m-3983 -1447 l175 -67 3
-1751 2 -1750 -187 -71 -187 -71 -80 77 c-45 42 -471 461 -949 931 l-868 854
273 276 c150 152 577 583 947 959 371 375 679 682 685 681 6 0 90 -31 186 -68z
m2978 -1137 c970 -371 1770 -677 1777 -681 8 -5 -647 -258 -1629 -631 -902
-343 -1710 -650 -1793 -682 l-153 -58 0 1370 c0 1301 1 1370 18 1363 9 -4 811
-310 1780 -681z m1006 -3965 c-515 -1031 -938 -1876 -940 -1879 -5 -5 -1564
1551 -1564 1561 0 3 694 449 1543 990 848 541 1621 1034 1717 1096 96 61 176
110 178 108 2 -1 -418 -846 -934 -1876z m-2759 -1479 l750 -750 -1868 0 -1867
0 -375 750 -375 750 1493 0 1492 0 750 -750z" transform="matrix(.1 0 0 -.1 0 1600)" fill="#374151" class="color000 svgShape"></path></svg></g></svg>