<svg id="SvgjsSvg1001" width="288" height="288" xmlns="http://www.w3.org/2000/svg" version="1.1" xmlns:xlink="http://www.w3.org/1999/xlink" xmlns:svgjs="http://svgjs.com/svgjs"><defs id="SvgjsDefs1002"></defs><g id="SvgjsG1008"><svg xmlns="http://www.w3.org/2000/svg" data-name="Layer 1" viewBox="0 0 240 234" width="288" height="288"><path fill="#d1d5db" d="M188.2324 117.1275A68.2934 68.2934 0 1052.2614 126.1v.0175c.02.1421.0279.2895.0483.4375h.0123c.0238.1952.0425.39.078.585 2.5835 14.42 31.8353 25.7937 67.536 25.7937 36.0019 0 65.446-11.5622 67.5943-26.16.03-.201.025-.4078.0443-.6083l.039.0058A68.8024 68.8024 0 00188.2324 117.1275zM119.936 57.5145a59.6082 59.6082 0 0159.352 54.13c-11.52-8.6175-33.7785-14.4494-59.352-14.4494-25.5711 0-47.8264 5.8319-59.35 14.4436A59.6113 59.6113 0 01119.936 57.5145zm58.8946 68.7864c-1.8284 10.8118-27.4963 19.388-58.8946 19.388-31.2 0-56.7445-8.47-58.8578-19.187a7.34 7.34 0 01-.1434-1.4432c0-11.3858 26.4178-20.6186 59.0012-20.6186s58.9989 9.2328 58.9989 20.6185A7.2748 7.2748 0 01178.8306 126.3009zM119.936 191.6455c-1.7509 0-3.4866-.0827-5.21-.2016a80.647 80.647 0 005.21 27.9531 80.5852 80.5852 0 005.2131-27.9531C123.4244 191.5628 121.6933 191.6455 119.936 191.6455zM119.936 42.61c1.7573 0 3.4884.0827 5.2131.201a80.6089 80.6089 0 00-5.2131-27.9524 80.6376 80.6376 0 00-5.21 27.9524C116.4494 42.6928 118.1851 42.61 119.936 42.61zM157.1965 181.6616c-1.5179.8758-3.0625 1.6729-4.6123 2.4309a80.7289 80.7289 0 0018.486 21.6056 80.6212 80.6212 0 00-9.4612-26.8163C160.1756 179.8461 158.7155 180.78 157.1965 181.6616zM82.6791 52.5928c1.5155-.8746 3.0607-1.6734 4.61-2.43A80.753 80.753 0 0068.8019 28.5564a80.5985 80.5985 0 009.4664 26.8163C79.6993 54.41 81.1589 53.4685 82.6791 52.5928zM184.4737 154.3827c-.877 1.52-1.8162 2.9873-2.7828 4.4189a80.6425 80.6425 0 0026.8145 9.463 80.48 80.48 0 00-21.6038-18.489C186.1441 151.3255 185.3482 152.869 184.4737 154.3827zM55.4019 79.8711c.874-1.5195 1.8144-2.98 2.78-4.4119a80.4955 80.4955 0 00-26.8134-9.4629A80.6735 80.6735 0 0052.971 84.4846C53.73 82.9289 54.525 81.3855 55.4019 79.8711zM194.4523 117.1275c0 1.7515-.0781 3.4884-.1993 5.21a80.3991 80.3991 0 0027.9525-5.21 80.6756 80.6756 0 00-27.9525-5.21C194.3707 113.6374 194.4523 115.3766 194.4523 117.1275zM45.4186 117.1275c0-1.7509.081-3.49.201-5.21a80.6777 80.6777 0 00-27.9524 5.21 80.3954 80.3954 0 0027.9524 5.21C45.5 120.6159 45.4186 118.879 45.4186 117.1275zM184.4737 79.8711c.8728 1.5144 1.67 3.0578 2.4273 4.6135a80.6694 80.6694 0 0021.6021-18.4883A80.4785 80.4785 0 00181.69 75.4592C182.6563 76.8908 183.595 78.3516 184.4737 79.8711zM55.4019 154.3827c-.8781-1.5143-1.674-3.0572-2.4309-4.6071a80.5709 80.5709 0 00-21.6026 18.489 80.6652 80.6652 0 0026.8134-9.463C57.2151 157.37 56.2759 155.9035 55.4019 154.3827z" class="colorfff svgShape"></path><path fill="#d1d5db" d="M157.1947 52.5928c1.52.8757 2.98 1.8167 4.4108 2.78a80.4618 80.4618 0 009.4629-26.81 80.6682 80.6682 0 00-18.4872 21.5991C154.134 50.9258 155.6786 51.7182 157.1947 52.5928zM82.6773 181.6681c-1.52-.8758-2.9809-1.822-4.409-2.78a80.4153 80.4153 0 00-9.4664 26.81 80.6644 80.6644 0 0018.4872-21.6C85.738 183.3345 84.194 182.5432 82.6773 181.6681z" class="colorfff svgShape"></path><path fill="#374151" d="M91.9,152.9878c2.2642,3.1973,4.8613,4.9959,7.1255,4.8626,2.5971-.1332,5.5938-2.7976,7.7914-6.8609,7.0588-13.1223,11.6537-26.0449,16.1155-38.5011,6.26-17.5187,12.6527-35.57,25.5717-52.6227,13.6515-17.7851,35.1611-24.7126,43.0191-26.6443a1.5,1.5,0,0,0,.5993-2.5979A110.9388,110.9388,0,0,0,85.9067,12.4387,36.3068,36.3068,0,0,0,61.8,45.8108c-.6659,29.0424,3.9956,70.6076,30.1,107.177" class="color2857af svgShape"></path><path fill="#374151" d="M195.1858,58.9332c-11.8536,1.532-20.5107,9.9916-25.7049,16.7859-10.4551,13.8551-15.716,28.51-21.7759,45.5619-4.7948,13.3888-9.7226,27.2439-17.7138,42.1647-6.6593,12.39-17.3142,25.0458-29.3009,25.8451-.6659,0-1.2653.0666-1.9312.0666-10.8546,0-21.1766-10.8576-28.4352-21.0491C43.5535,130.74,36.0285,89.6408,35.2294,57.7342a2.9249,2.9249,0,0,0-5.394-1.4655c-15.7826,23.114-23.1744,55.2871-15.05,87.7932,10.3885,41.4987,44.0179,72.7392,82.5753,81.3986C169.6141,241.7136,233.61,186.76,233.61,117.2177a110.6142,110.6142,0,0,0-7.3252-39.7,28.9184,28.9184,0,0,0-20.5106-17.9849,28.5873,28.5873,0,0,0-10.5883-.5995" class="color2857af svgShape"></path></svg></g></svg>